<svg xmlns="http://www.w3.org/2000/svg" viewBox="0 0 400 300" fill="none">
  <!-- Background circle -->
  <circle cx="200" cy="150" r="100" fill="#f4f4f5" />

  <!-- Calendar -->
  <rect x="140" y="90" width="120" height="110" rx="8" fill="#e4e4e7" stroke="#a1a1aa" stroke-width="2"/>

  <!-- Calendar header -->
  <rect x="140" y="90" width="120" height="30" rx="8" fill="#a1a1aa"/>
  <rect x="140" y="110" width="120" height="10" fill="#a1a1aa"/>

  <!-- Calendar rings -->
  <rect x="165" y="82" width="8" height="20" rx="2" fill="#71717a"/>
  <rect x="227" y="82" width="8" height="20" rx="2" fill="#71717a"/>

  <!-- Calendar grid (empty days) -->
  <rect x="152" y="135" width="18" height="18" rx="2" fill="#d4d4d8"/>
  <rect x="177" y="135" width="18" height="18" rx="2" fill="#d4d4d8"/>
  <rect x="202" y="135" width="18" height="18" rx="2" fill="#d4d4d8"/>
  <rect x="227" y="135" width="18" height="18" rx="2" fill="#d4d4d8"/>

  <rect x="152" y="160" width="18" height="18" rx="2" fill="#d4d4d8"/>
  <rect x="177" y="160" width="18" height="18" rx="2" fill="#d4d4d8"/>
  <rect x="202" y="160" width="18" height="18" rx="2" fill="#d4d4d8"/>
  <rect x="227" y="160" width="18" height="18" rx="2" fill="#d4d4d8"/>
</svg>
